<svg width="32" height="32" viewBox="0 0 32 32" fill="none" xmlns="http://www.w3.org/2000/svg">
  <rect width="32" height="32" rx="10" fill="white" />
  <path d="M16.2693 7C14.8718 7 13.5315 7.55516 12.5433 8.54335C11.5552 9.53154 11 10.8718 11 12.2693C11 15.1801 16.2693 25 16.2693 25C16.2693 25 21.5386 15.1808 21.5386 12.2693C21.5386 10.8718 20.9835 9.53154 19.9953 8.54335C19.0071 7.55516 17.6668 7 16.2693 7ZM16.2693 14.7874C15.6015 14.7874 14.961 14.5221 14.4888 14.0498C14.0166 13.5776 13.7513 12.9371 13.7513 12.2693C13.7513 11.6015 14.0166 10.961 14.4888 10.4888C14.961 10.0166 15.6015 9.75129 16.2693 9.75129C16.9371 9.75129 17.5776 10.0166 18.0498 10.4888C18.5221 10.961 18.7874 11.6015 18.7874 12.2693C18.7874 12.9371 18.5221 13.5776 18.0498 14.0498C17.5776 14.5221 16.9371 14.7874 16.2693 14.7874Z" fill="#11992D" />
</svg>