<svg width="32" height="32" viewBox="0 0 32 32" fill="none" xmlns="http://www.w3.org/2000/svg">
  <rect width="32" height="32" rx="10" fill="white" />
  <path d="M25 13.1472V20.475C25 21.2221 24.7142 21.9409 24.2011 22.484C23.688 23.0271 22.9865 23.3532 22.2406 23.3955L22.075 23.4H9.925C9.17788 23.4 8.45905 23.1142 7.91599 22.6011C7.37293 22.088 7.0468 21.3865 7.0045 20.6406L7 20.475V13.1472L15.6868 17.6976C15.7834 17.7482 15.8909 17.7747 16 17.7747C16.1091 17.7747 16.2166 17.7482 16.3132 17.6976L25 13.1472ZM9.925 9H22.075C22.8 8.99991 23.4992 9.2691 24.037 9.75534C24.5748 10.2416 24.9129 10.9102 24.9856 11.6316L16 16.3386L7.0144 11.6316C7.08417 10.9389 7.39874 10.2938 7.90157 9.81222C8.4044 9.33067 9.06251 9.04427 9.7576 9.0045L9.925 9Z" fill="#11992D" />
</svg>