<svg width="32" height="32" viewBox="0 0 32 32" fill="none" xmlns="http://www.w3.org/2000/svg">
  <rect width="32" height="32" rx="10" fill="white" />
  <path d="M19.1616 18.2645L18.7571 18.6909C18.7571 18.6909 17.7945 19.7036 15.1678 16.9384C12.5412 14.1732 13.5038 13.1605 13.5038 13.1605L13.7581 12.8913C14.3865 12.2306 14.4461 11.1689 13.8976 10.3934L12.7776 8.8094C12.0985 7.84939 10.7874 7.72233 10.0096 8.54116L8.61409 10.0094C8.2292 10.416 7.97143 10.9412 8.00254 11.5247C8.08254 13.0184 8.72076 16.2306 12.2798 19.9784C16.0549 23.9521 19.5971 24.1102 21.0451 23.9672C21.5038 23.922 21.902 23.6754 22.2229 23.3366L23.4851 22.0076C24.3384 21.1107 24.0984 19.5718 23.0069 18.9441L21.3091 17.9662C20.5927 17.5539 19.7216 17.6754 19.1616 18.2645Z" fill="#11992D" />
</svg>